<svg width="291" height="291" viewBox="0 0 291 291" fill="none" xmlns="http://www.w3.org/2000/svg">
<path d="M291 0H0V291H291V0Z" fill="#8BD8ED"/>
<path d="M151.816 263.76C133.96 263.76 116.392 258.672 99.112 248.496L74.632 260.88H68.296V186.864H74.632L99.4 240.432C115.336 251.76 133.576 257.424 154.12 257.424C171.016 257.424 184.936 253.008 195.88 244.176C207.016 235.152 212.584 222.576 212.584 206.448C212.584 194.736 209.032 185.52 201.928 178.8C194.824 171.888 183.304 166.416 167.368 162.384L119.56 150C102.856 145.584 90.28 138.096 81.832 127.536C73.384 116.784 69.16 104.112 69.16 89.52C69.16 76.272 71.752 64.56 76.936 54.384C82.312 44.016 90.088 36.048 100.264 30.48C110.44 24.72 122.536 21.84 136.552 21.84C154.024 21.84 169.672 24.816 183.496 30.768L204.52 21.84H210.856V80.592H204.52L183.784 38.544C169.384 31.632 153.736 28.176 136.84 28.176C120.136 28.176 106.984 32.496 97.384 41.136C87.784 49.584 82.984 60.816 82.984 74.832C82.984 85.2 86.344 93.36 93.064 99.312C99.976 105.264 110.056 109.968 123.304 113.424L174.856 126.96C191.56 131.184 203.944 138.48 212.008 148.848C220.264 159.024 224.392 174.576 224.392 195.504C224.392 216.816 217.768 233.52 204.52 245.616C191.464 257.712 173.896 263.76 151.816 263.76Z" fill="black"/>
</svg>
